<?xml version="1.0" encoding="UTF-8" standalone="no"?>
<svg width="18px" height="22px" viewBox="0 0 18 22" version="1.1" xmlns="http://www.w3.org/2000/svg" xmlns:xlink="http://www.w3.org/1999/xlink">
    <!-- Generator: Sketch 44 (41411) - http://www.bohemiancoding.com/sketch -->
    <title>Icon</title>
    <desc>Created with Sketch.</desc>
    <defs></defs>
    <g id="Home" stroke="none" stroke-width="1" fill="none" fill-rule="evenodd" opacity="0.5">
        <g id="Mobile/0.0_Home-Não_Logado" transform="translate(-278.000000, -299.000000)" fill="#777777">
            <g id="DP" transform="translate(0.000000, 101.000000)">
                <g id="Busca" transform="translate(7.000000, 90.000000)">
                    <g id="Input" transform="translate(0.000000, 94.000000)">
                        <g id="Icon/0.Special/Voice" transform="translate(269.000000, 14.000000)">
                            <g transform="translate(2.200000, 0.000000)">
                                <path d="M8.57083333,16.5 C11.6083,16.5 14.0708333,14.0374667 14.0708333,11 L14.0708333,5.5 C14.0708333,2.46253333 11.6083,0 8.57083333,0 C5.53336667,0 3.07083333,2.46253333 3.07083333,5.5 L3.07083333,11 C3.07083333,14.0374667 5.53336667,16.5 8.57083333,16.5" id="Fill-1"></path>
                                <path d="M17.1416667,11 L15.675,11 C15.675,14.9174667 12.4879333,18.1045333 8.57046667,18.1045333 C4.65373333,18.1045333 1.46666667,14.9174667 1.46666667,11 L0,11 C0,15.4784667 3.454,19.1598 7.83713333,19.5338 L7.83713333,20.5326 L3.0712,20.5326 L3.0712,21.9992667 L7.83713333,21.9992667 L7.83713333,22 L9.3038,22 L9.3038,21.9992667 L14.0712,21.9992667 L14.0712,20.5326 L9.3038,20.5326 L9.3038,19.5338 C13.6876667,19.1598 17.1416667,15.4784667 17.1416667,11" id="Fill-3"></path>
                            </g>
                        </g>
                    </g>
                </g>
            </g>
        </g>
    </g>
</svg>